# xmcd
#
# Track frame offsets:
#	150
#	16192
#	31113
#	53488
#	66823
#	80387
#
# Disc length: 1276 seconds
#
# Revision: 0
# Processed by: cddbd v1.5.2PL0 Copyright (c) Steve Scherf et al.
# Submitted via: EasyCDDAExtractor 10.2.0.1
#
DISCID=3804fa06
DTITLE=Shawn and Hobby - Summer 2007 Tour EP
DYEAR=2007
DGENRE=Country
TTITLE0=I've Come Undone
TTITLE1=Kiss my Country ass
TTITLE2=Long Day
TTITLE3=Sometimes
TTITLE4=Still on the Run
TTITLE5=lay Me Down
EXTD=
EXTT0=
EXTT1=
EXTT2=
EXTT3=
EXTT4=
EXTT5=
PLAYORDER=
